<?xml version="1.0" encoding="UTF-8"?>
<svg width="64px" height="64px" viewBox="0 0 64 64" version="1.1" xmlns="http://www.w3.org/2000/svg" xmlns:xlink="http://www.w3.org/1999/xlink">
    <title>graph-pcc</title>
    <g id="Elements" stroke="none" stroke-width="1" fill="none" fill-rule="evenodd">
        <g id="graph-pcc" transform="translate(0.081509, 0.000000)">
            <circle id="Oval" fill="#E2E8EF" cx="31.9184907" cy="31.9184907" r="31.9184907"></circle>
            <path d="M21.3140728,21.8817059 L21.3140728,20.0239977 L29.9833779,19.6111736 L29.9833779,29.3641419 C30.9466341,26.0959514 32.0819002,23.6534091 33.3891764,22.0365149 C34.6964525,20.4196207 36.3133468,19.6111736 38.239859,19.6111736 C39.5471352,19.6111736 40.5877958,20.0153972 41.3618409,20.8238443 C42.135886,21.6322914 42.5229085,22.741756 42.5229085,24.1522382 C42.5229085,25.1154943 42.2648935,25.9067404 41.7488634,26.5259765 C41.2328334,27.1452126 40.5619943,27.4548306 39.7363462,27.4548306 C38.9795021,27.4548306 38.3688665,27.1882151 37.9044395,26.654984 C37.4400124,26.1217529 37.2077989,25.4251124 37.2077989,24.5650623 C37.2077989,24.0834342 37.3282059,23.5846051 37.5690199,23.0685751 C37.8098339,22.552545 37.930241,22.242927 37.930241,22.1397209 C37.930241,22.0709169 37.861437,22.0021129 37.7238289,21.9333089 C37.6894269,21.9333089 37.6034219,21.9161079 37.4658139,21.8817059 C35.9865277,21.8817059 34.48144,23.3179896 32.9505508,26.190557 C31.4196616,29.0631243 30.654217,32.0991012 30.654217,35.2984876 L30.654217,40.4587883 C30.654217,41.6628584 31.5658701,42.2648935 33.3891764,42.2648935 L36.4853568,42.2648935 L36.4853568,44.2258078 L21.4688819,44.2258078 L21.4688819,42.2648935 L23.8426202,42.2648935 C25.5283184,42.2648935 26.3711675,41.7144614 26.3711675,40.6135973 L26.3711675,25.2359013 C26.3711675,22.9997711 25.3907104,21.8817059 23.4297961,21.8817059 L21.3140728,21.8817059 Z" id="r" fill="#FF7F50" fill-rule="nonzero"></path>
        </g>
    </g>
</svg>