<?xml version="1.0" encoding="UTF-8"?>
<svg width="22px" height="24px" viewBox="0 0 22 24" version="1.1" xmlns="http://www.w3.org/2000/svg" xmlns:xlink="http://www.w3.org/1999/xlink">
    <title>Shift</title>
    <g id="Page-1" stroke="none" stroke-width="1" fill="none" fill-rule="evenodd">
        <path d="M21.8624105,11.14775 L11.3624105,0.14775 C11.1734105,-0.04925 10.8284105,-0.04925 10.6384105,0.14775 L0.138410528,11.14775 C0.000410527989,11.29275 -0.038589472,11.50575 0.040410528,11.68975 C0.119410528,11.87375 0.299410528,11.99275 0.499410528,11.99275 L4.99941053,11.99275 L4.99941053,23.49275 C4.99941053,23.76875 5.22341053,23.99275 5.49941053,23.99275 L16.4994105,23.99275 C16.7754105,23.99275 16.9994105,23.76875 16.9994105,23.49275 L16.9994105,11.99275 L21.4994105,11.99275 C21.6994105,11.99275 21.8804105,11.87375 21.9584105,11.68975 C22.0394105,11.50575 22.0002621,11.29175 21.8624105,11.14775 Z" id="Shift" fill="#FFFFFF" fill-rule="nonzero"></path>
    </g>
</svg>